<svg width="396" height="74" viewBox="0 0 396 74" fill="none" xmlns="http://www.w3.org/2000/svg">
<g filter="url(#filter0_d)">
<path d="M25.44 30.68H41.94C42.38 30.68 42.76 30.84 43.08 31.16C43.4 31.48 43.56 31.86 43.56 32.3V40.1C43.56 45.38 41.68 49.46 37.92 52.34C34.16 55.18 29.14 56.6 22.86 56.6C16.62 56.6 11.7 55.22 8.1 52.46C4.5 49.66 2.7 45.48 2.7 39.92V29.84C2.7 24.52 4.54 20.46 8.22 17.66C11.9 14.82 16.8 13.4 22.92 13.4C29.08 13.4 34.06 14.7 37.86 17.3C41.66 19.86 43.56 23.02 43.56 26.78C43.56 27.14 43.42 27.46 43.14 27.74C42.9 27.98 42.6 28.1 42.24 28.1H28.98C28.18 28.1 27.6 27.88 27.24 27.44C26.44 26.4 25.84 25.8 25.44 25.64C24.52 25.28 23.68 25.1 22.92 25.1C19.84 25.1 18.3 26.6 18.3 29.6V39.8C18.3 43.2 19.94 44.9 23.22 44.9C26.58 44.9 28.26 43.46 28.26 40.58H25.44C25 40.58 24.62 40.42 24.3 40.1C23.98 39.78 23.82 39.4 23.82 38.96V32.3C23.82 31.86 23.98 31.48 24.3 31.16C24.62 30.84 25 30.68 25.44 30.68ZM63.3291 14H76.3491C77.7891 14 78.6891 14.66 79.0491 15.98L92.4291 54.26C92.4691 54.38 92.4891 54.58 92.4891 54.86C92.4891 55.1 92.3491 55.36 92.0691 55.64C91.8291 55.88 91.5291 56 91.1691 56H80.0691C78.8691 56 78.0891 55.5 77.7291 54.5L76.2891 50.54H63.3891L61.9491 54.5C61.5891 55.5 60.8091 56 59.6091 56H48.5091C48.1491 56 47.8291 55.88 47.5491 55.64C47.3091 55.36 47.1891 55.1 47.1891 54.86C47.1891 54.58 47.2091 54.38 47.2491 54.26L60.6291 15.98C60.9891 14.66 61.8891 14 63.3291 14ZM66.4491 38.84H73.2291L69.8091 27.68L66.4491 38.84ZM130.958 14H140.438C140.878 14 141.258 14.16 141.578 14.48C141.898 14.8 142.058 15.18 142.058 15.62V54.38C142.058 54.82 141.898 55.2 141.578 55.52C141.258 55.84 140.878 56 140.438 56H129.578C129.138 56 128.758 55.84 128.438 55.52C128.118 55.2 127.958 54.82 127.958 54.38V37.94L123.998 44.42C123.358 45.42 122.618 45.92 121.778 45.92H117.578C116.738 45.92 115.998 45.42 115.358 44.42L111.398 37.94V54.38C111.398 54.82 111.238 55.2 110.918 55.52C110.598 55.84 110.218 56 109.778 56H98.9184C98.4784 56 98.0984 55.84 97.7784 55.52C97.4584 55.2 97.2984 54.82 97.2984 54.38V15.62C97.2984 15.18 97.4584 14.8 97.7784 14.48C98.0984 14.16 98.4784 14 98.9184 14H108.398C109.518 14 110.378 14.54 110.978 15.62L119.678 30.02L128.378 15.62C128.978 14.54 129.838 14 130.958 14ZM164.257 44.3H182.737C183.177 44.3 183.557 44.46 183.877 44.78C184.197 45.1 184.357 45.48 184.357 45.92V54.38C184.357 54.82 184.197 55.2 183.877 55.52C183.557 55.84 183.177 56 182.737 56H151.477C151.037 56 150.657 55.84 150.337 55.52C150.017 55.2 149.857 54.82 149.857 54.38V15.62C149.857 15.18 150.017 14.8 150.337 14.48C150.657 14.16 151.037 14 151.477 14H182.257C182.697 14 183.077 14.16 183.397 14.48C183.717 14.8 183.877 15.18 183.877 15.62V24.08C183.877 24.52 183.717 24.9 183.397 25.22C183.077 25.54 182.697 25.7 182.257 25.7H164.257V29.48H180.937C181.377 29.48 181.757 29.64 182.077 29.96C182.397 30.28 182.557 30.66 182.557 31.1V38.9C182.557 39.34 182.397 39.72 182.077 40.04C181.757 40.36 181.377 40.52 180.937 40.52H164.257V44.3Z" fill="white"/>
<path d="M43.08 31.16L44.4942 29.7458L44.4942 29.7458L43.08 31.16ZM37.92 52.34L39.1255 53.936L39.1362 53.9278L37.92 52.34ZM8.1 52.46L6.87209 54.0387L6.88314 54.0472L8.1 52.46ZM8.22 17.66L9.43107 19.2517L9.44192 19.2433L8.22 17.66ZM37.86 17.3L36.7306 18.9506L36.7366 18.9547L36.7426 18.9587L37.86 17.3ZM43.14 27.74L44.5542 29.1542L44.5542 29.1542L43.14 27.74ZM27.24 27.44L25.6548 28.6594L25.6731 28.6832L25.6921 28.7065L27.24 27.44ZM25.44 25.64L26.1828 23.783L26.1758 23.7803L26.1688 23.7775L25.44 25.64ZM28.26 40.58H30.26V38.58H28.26V40.58ZM24.3 40.1L25.7142 38.6858L25.7142 38.6858L24.3 40.1ZM25.44 32.68H41.94V28.68H25.44V32.68ZM41.94 32.68C41.9116 32.68 41.8507 32.6735 41.7789 32.6433C41.7081 32.6135 41.6708 32.5792 41.6658 32.5742L44.4942 29.7458C43.8111 29.0627 42.9271 28.68 41.94 28.68V32.68ZM41.6658 32.5742C41.6608 32.5692 41.6265 32.5318 41.5967 32.4611C41.5665 32.3893 41.56 32.3284 41.56 32.3H45.56C45.56 31.3129 45.1773 30.4289 44.4942 29.7458L41.6658 32.5742ZM41.56 32.3V40.1H45.56V32.3H41.56ZM41.56 40.1C41.56 44.8395 39.9082 48.2978 36.7038 50.7522L39.1362 53.9278C43.4518 50.6222 45.56 45.9205 45.56 40.1H41.56ZM36.7146 50.7441C33.4013 53.2467 28.8488 54.6 22.86 54.6V58.6C29.4312 58.6 34.9187 57.1133 39.1254 53.9359L36.7146 50.7441ZM22.86 54.6C16.8973 54.6 12.4575 53.2806 9.31686 50.8728L6.88314 54.0472C10.9425 57.1594 16.3427 58.6 22.86 58.6V54.6ZM9.32788 50.8813C6.3225 48.5438 4.7 45.0131 4.7 39.92H0.7C0.7 45.9469 2.6775 50.7762 6.87212 54.0387L9.32788 50.8813ZM4.7 39.92V29.84H0.7V39.92H4.7ZM4.7 29.84C4.7 25.0379 6.3274 21.6131 9.43104 19.2517L7.00896 16.0683C2.7526 19.3069 0.7 24.0021 0.7 29.84H4.7ZM9.44192 19.2433C12.6751 16.7481 17.1021 15.4 22.92 15.4V11.4C16.4979 11.4 11.1249 12.8919 6.99809 16.0767L9.44192 19.2433ZM22.92 15.4C28.8106 15.4 33.3587 16.6435 36.7306 18.9506L38.9894 15.6494C34.7613 12.7565 29.3494 11.4 22.92 11.4V15.4ZM36.7426 18.9587C40.1284 21.2397 41.56 23.8356 41.56 26.78H45.56C45.56 22.2044 43.1916 18.4803 38.9774 15.6413L36.7426 18.9587ZM41.56 26.78C41.56 26.6928 41.5787 26.589 41.6227 26.4884C41.6651 26.3914 41.7128 26.3387 41.7258 26.3258L44.5542 29.1542C45.1681 28.5403 45.56 27.726 45.56 26.78H41.56ZM41.7258 26.3258C41.7875 26.2641 41.8781 26.1987 41.9922 26.153C42.104 26.1083 42.1946 26.1 42.24 26.1V30.1C43.0947 30.1 43.9146 29.7938 44.5542 29.1542L41.7258 26.3258ZM42.24 26.1H28.98V30.1H42.24V26.1ZM28.98 26.1C28.7555 26.1 28.6627 26.0682 28.6543 26.065C28.6527 26.0644 28.6712 26.0714 28.7005 26.0919C28.7306 26.1131 28.7613 26.141 28.7879 26.1735L25.6921 28.7065C26.5686 29.7778 27.8358 30.1 28.98 30.1V26.1ZM28.8253 26.2206C28.3976 25.6647 27.9889 25.1805 27.6042 24.7958C27.2624 24.454 26.7757 24.0202 26.1828 23.783L24.6972 27.497C24.5731 27.4473 24.5264 27.4037 24.5673 27.4348C24.6004 27.46 24.6691 27.5175 24.7758 27.6242C24.9911 27.8395 25.2824 28.1753 25.6548 28.6594L28.8253 26.2206ZM26.1688 23.7775C25.0828 23.3525 23.9918 23.1 22.92 23.1V27.1C23.3682 27.1 23.9572 27.2074 24.7112 27.5025L26.1688 23.7775ZM22.92 23.1C21.0847 23.1 19.3385 23.5466 18.0595 24.7923C16.7708 26.0475 16.3 27.7782 16.3 29.6H20.3C20.3 28.4218 20.5992 27.9025 20.8505 27.6577C21.1115 27.4034 21.6753 27.1 22.92 27.1V23.1ZM16.3 29.6V39.8H20.3V29.6H16.3ZM16.3 39.8C16.3 41.7907 16.7792 43.6542 18.0906 45.0136C19.4149 46.3864 21.2531 46.9 23.22 46.9V42.9C21.9069 42.9 21.2851 42.5636 20.9694 42.2364C20.6408 41.8958 20.3 41.2093 20.3 39.8H16.3ZM23.22 46.9C25.1393 46.9 26.952 46.4953 28.3016 45.3385C29.7102 44.1312 30.26 42.4157 30.26 40.58H26.26C26.26 41.6243 25.9698 42.0688 25.6984 42.3015C25.368 42.5847 24.6607 42.9 23.22 42.9V46.9ZM28.26 38.58H25.44V42.58H28.26V38.58ZM25.44 38.58C25.4684 38.58 25.5293 38.5865 25.6011 38.6167C25.6719 38.6465 25.7092 38.6808 25.7142 38.6858L22.8858 41.5142C23.5689 42.1973 24.4529 42.58 25.44 42.58V38.58ZM25.7142 38.6858C25.7192 38.6908 25.7535 38.7281 25.7833 38.7989C25.8135 38.8707 25.82 38.9316 25.82 38.96H21.82C21.82 39.9471 22.2027 40.8311 22.8858 41.5142L25.7142 38.6858ZM25.82 38.96V32.3H21.82V38.96H25.82ZM25.82 32.3C25.82 32.3284 25.8135 32.3893 25.7833 32.4611C25.7535 32.5319 25.7192 32.5692 25.7142 32.5742L22.8858 29.7458C22.2027 30.4289 21.82 31.3129 21.82 32.3H25.82ZM25.7142 32.5742C25.7092 32.5792 25.6719 32.6135 25.6011 32.6433C25.5293 32.6735 25.4684 32.68 25.44 32.68V28.68C24.4529 28.68 23.5689 29.0627 22.8858 29.7458L25.7142 32.5742ZM79.0491 15.98L77.1195 16.5062L77.138 16.5738L77.1611 16.6399L79.0491 15.98ZM92.4291 54.26L94.3264 53.6276L94.3218 53.6138L94.3171 53.6001L92.4291 54.26ZM92.0691 55.64L90.6549 54.2258L90.6548 54.2258L92.0691 55.64ZM77.7291 54.5L79.6108 53.8226L79.6087 53.8165L77.7291 54.5ZM76.2891 50.54L78.1686 49.8565L77.6899 48.54H76.2891V50.54ZM63.3891 50.54V48.54H61.9882L61.5095 49.8565L63.3891 50.54ZM61.9491 54.5L60.0695 53.8165L60.0673 53.8226L61.9491 54.5ZM47.5491 55.64L46.0305 56.9416L46.1307 57.0584L46.2475 57.1585L47.5491 55.64ZM47.2491 54.26L45.3611 53.6001L45.3563 53.6138L45.3517 53.6275L47.2491 54.26ZM60.6291 15.98L62.5171 16.6399L62.5402 16.5738L62.5586 16.5062L60.6291 15.98ZM66.4491 38.84L64.534 38.2634L63.7582 40.84H66.4491V38.84ZM73.2291 38.84V40.84H75.9338L75.1413 38.254L73.2291 38.84ZM69.8091 27.68L71.7213 27.094L69.7921 20.7988L67.894 27.1034L69.8091 27.68ZM63.3291 16H76.3491V12H63.3291V16ZM76.3491 16C76.7674 16 76.9022 16.0938 76.9213 16.1078C76.9302 16.1143 77.0308 16.181 77.1195 16.5062L80.9786 15.4538C80.7073 14.459 80.178 13.5357 79.2868 12.8822C78.4059 12.2362 77.3708 12 76.3491 12V16ZM77.1611 16.6399L90.5411 54.9199L94.3171 53.6001L80.9371 15.3201L77.1611 16.6399ZM90.5317 54.8924C90.5184 54.8527 90.5092 54.8192 90.5028 54.7938C90.4964 54.7682 90.4922 54.7478 90.4896 54.7336C90.4844 54.7062 90.4834 54.6933 90.484 54.699C90.4845 54.704 90.4859 54.7197 90.487 54.7483C90.4882 54.7764 90.4891 54.8134 90.4891 54.86H94.4891C94.4891 54.5615 94.4768 54.0787 94.3264 53.6276L90.5317 54.8924ZM90.4891 54.86C90.4891 54.5811 90.5719 54.3819 90.6231 54.2868C90.6707 54.1984 90.7009 54.1797 90.6549 54.2258L93.4833 57.0542C93.9068 56.6307 94.4891 55.8865 94.4891 54.86H90.4891ZM90.6548 54.2258C90.7165 54.1641 90.8072 54.0987 90.9213 54.053C91.033 54.0083 91.1236 54 91.1691 54V58C92.0238 58 92.8437 57.6938 93.4833 57.0542L90.6548 54.2258ZM91.1691 54H80.0691V58H91.1691V54ZM80.0691 54C79.7403 54 79.6488 53.9319 79.6634 53.9412C79.6692 53.945 79.6732 53.9501 79.6701 53.9461C79.6653 53.9397 79.6407 53.9055 79.6108 53.8226L75.8473 55.1774C76.1536 56.0283 76.6904 56.7867 77.5047 57.3088C78.2993 57.8181 79.1978 58 80.0691 58V54ZM79.6087 53.8165L78.1686 49.8565L74.4095 51.2235L75.8495 55.1835L79.6087 53.8165ZM76.2891 48.54H63.3891V52.54H76.2891V48.54ZM61.5095 49.8565L60.0695 53.8165L63.8287 55.1835L65.2687 51.2235L61.5095 49.8565ZM60.0673 53.8226C60.0374 53.9055 60.0129 53.9397 60.008 53.9461C60.005 53.9501 60.0089 53.945 60.0147 53.9412C60.0293 53.9319 59.9378 54 59.6091 54V58C60.4803 58 61.3788 57.8181 62.1734 57.3088C62.9878 56.7867 63.5245 56.0283 63.8308 55.1774L60.0673 53.8226ZM59.6091 54H48.5091V58H59.6091V54ZM48.5091 54C48.5559 54 48.625 54.0087 48.7013 54.0373C48.777 54.0657 48.8272 54.1014 48.8506 54.1215L46.2475 57.1585C46.8803 57.7009 47.659 58 48.5091 58V54ZM49.0676 54.3384C49.035 54.3005 49.0592 54.3194 49.095 54.3969C49.1332 54.4796 49.1891 54.6401 49.1891 54.86H45.1891C45.1891 55.7758 45.6395 56.4853 46.0305 56.9416L49.0676 54.3384ZM49.1891 54.86C49.1891 54.8134 49.1899 54.7764 49.1911 54.7483C49.1923 54.7197 49.1936 54.704 49.1941 54.699C49.1947 54.6933 49.1937 54.7062 49.1886 54.7336C49.1859 54.7478 49.1817 54.7682 49.1753 54.7938C49.1689 54.8192 49.1597 54.8527 49.1464 54.8925L45.3517 53.6275C45.2013 54.0787 45.1891 54.5615 45.1891 54.86H49.1891ZM49.1371 54.9199L62.5171 16.6399L58.7411 15.3201L45.3611 53.6001L49.1371 54.9199ZM62.5586 16.5062C62.6473 16.181 62.748 16.1143 62.7568 16.1078C62.7759 16.0938 62.9108 16 63.3291 16V12C62.3074 12 61.2722 12.2362 60.3913 12.8822C59.5002 13.5357 58.9708 14.459 58.6995 15.4538L62.5586 16.5062ZM66.4491 40.84H73.2291V36.84H66.4491V40.84ZM75.1413 38.254L71.7213 27.094L67.8968 28.266L71.3168 39.426L75.1413 38.254ZM67.894 27.1034L64.534 38.2634L68.3642 39.4166L71.7242 28.2566L67.894 27.1034ZM141.578 55.52L140.164 54.1058L141.578 55.52ZM128.438 55.52L129.853 54.1058L129.853 54.1058L128.438 55.52ZM127.958 37.94H129.958V30.8318L126.252 36.8971L127.958 37.94ZM123.998 44.42L125.683 45.4981L125.694 45.4806L125.705 45.4629L123.998 44.42ZM115.358 44.42L113.652 45.4629L113.663 45.4806L113.674 45.4981L115.358 44.42ZM111.398 37.94L113.105 36.8971L109.398 30.8318V37.94H111.398ZM110.918 55.52L112.333 56.9342L112.333 56.9342L110.918 55.52ZM97.7784 55.52L99.1926 54.1058L97.7784 55.52ZM97.7784 14.48L99.1926 15.8942V15.8942L97.7784 14.48ZM110.978 15.62L109.23 16.5913L109.248 16.6231L109.267 16.6542L110.978 15.62ZM119.678 30.02L117.967 31.0542L119.678 33.8876L121.39 31.0542L119.678 30.02ZM128.378 15.62L130.09 16.6542L130.109 16.6231L130.127 16.5913L128.378 15.62ZM130.958 16H140.438V12H130.958V16ZM140.438 16C140.41 16 140.349 15.9935 140.277 15.9633C140.207 15.9335 140.169 15.8992 140.164 15.8942L142.993 13.0658C142.31 12.3827 141.426 12 140.438 12V16ZM140.164 15.8942C140.159 15.8892 140.125 15.8519 140.095 15.7811C140.065 15.7093 140.058 15.6484 140.058 15.62H144.058C144.058 14.6329 143.676 13.7489 142.993 13.0658L140.164 15.8942ZM140.058 15.62V54.38H144.058V15.62H140.058ZM140.058 54.38C140.058 54.3516 140.065 54.2907 140.095 54.2189C140.125 54.1481 140.159 54.1108 140.164 54.1058L142.993 56.9342C143.676 56.2511 144.058 55.3671 144.058 54.38H140.058ZM140.164 54.1058C140.169 54.1008 140.207 54.0665 140.277 54.0367C140.349 54.0065 140.41 54 140.438 54V58C141.426 58 142.31 57.6173 142.993 56.9342L140.164 54.1058ZM140.438 54H129.578V58H140.438V54ZM129.578 54C129.607 54 129.668 54.0065 129.74 54.0367C129.81 54.0665 129.848 54.1008 129.853 54.1058L127.024 56.9342C127.707 57.6173 128.591 58 129.578 58V54ZM129.853 54.1058C129.858 54.1108 129.892 54.1481 129.922 54.2189C129.952 54.2907 129.958 54.3516 129.958 54.38H125.958C125.958 55.3671 126.341 56.2511 127.024 56.9342L129.853 54.1058ZM129.958 54.38V37.94H125.958V54.38H129.958ZM126.252 36.8971L122.292 43.3771L125.705 45.4629L129.665 38.9829L126.252 36.8971ZM122.314 43.3419C122.095 43.6841 121.927 43.8317 121.844 43.8878C121.806 43.9136 121.787 43.9193 121.786 43.9194C121.786 43.9197 121.785 43.9197 121.785 43.9197C121.785 43.9197 121.785 43.9197 121.785 43.9197C121.786 43.9197 121.786 43.9197 121.786 43.9197C121.786 43.9197 121.785 43.9197 121.785 43.9197C121.785 43.9197 121.785 43.9198 121.784 43.9198C121.783 43.9199 121.781 43.92 121.778 43.92V47.92C123.56 47.92 124.841 46.8131 125.683 45.4981L122.314 43.3419ZM121.778 43.92H117.578V47.92H121.778V43.92ZM117.578 43.92C117.576 43.92 117.574 43.9199 117.573 43.9198C117.572 43.9198 117.572 43.9197 117.572 43.9197C117.571 43.9197 117.571 43.9197 117.571 43.9197C117.571 43.9197 117.571 43.9197 117.571 43.9197C117.571 43.9197 117.572 43.9197 117.572 43.9197C117.572 43.9197 117.571 43.9197 117.571 43.9194C117.57 43.9193 117.551 43.9136 117.513 43.8878C117.43 43.8317 117.262 43.6841 117.043 43.3419L113.674 45.4981C114.515 46.8131 115.797 47.92 117.578 47.92V43.92ZM117.065 43.3771L113.105 36.8971L109.692 38.9829L113.652 45.4629L117.065 43.3771ZM109.398 37.94V54.38H113.398V37.94H109.398ZM109.398 54.38C109.398 54.3516 109.405 54.2907 109.435 54.2189C109.465 54.1481 109.499 54.1108 109.504 54.1058L112.333 56.9342C113.016 56.2511 113.398 55.3671 113.398 54.38H109.398ZM109.504 54.1058C109.509 54.1008 109.547 54.0665 109.617 54.0367C109.689 54.0065 109.75 54 109.778 54V58C110.766 58 111.65 57.6173 112.333 56.9342L109.504 54.1058ZM109.778 54H98.9184V58H109.778V54ZM98.9184 54C98.9469 54 99.0077 54.0065 99.0796 54.0367C99.1503 54.0665 99.1876 54.1008 99.1926 54.1058L96.3642 56.9342C97.0473 57.6173 97.9313 58 98.9184 58V54ZM99.1926 54.1058C99.1977 54.1108 99.2319 54.1481 99.2617 54.2189C99.292 54.2907 99.2984 54.3516 99.2984 54.38H95.2984C95.2984 55.3671 95.6811 56.2511 96.3642 56.9342L99.1926 54.1058ZM99.2984 54.38V15.62H95.2984V54.38H99.2984ZM99.2984 15.62C99.2984 15.6484 99.292 15.7093 99.2617 15.7811C99.2319 15.8519 99.1977 15.8892 99.1926 15.8942L96.3642 13.0658C95.6811 13.7489 95.2984 14.6329 95.2984 15.62H99.2984ZM99.1926 15.8942C99.1876 15.8992 99.1503 15.9335 99.0796 15.9633C99.0077 15.9935 98.9469 16 98.9184 16V12C97.9313 12 97.0473 12.3827 96.3642 13.0658L99.1926 15.8942ZM98.9184 16H108.398V12H98.9184V16ZM108.398 16C108.705 16 108.938 16.0663 109.23 16.5913L112.727 14.6487C111.818 13.0137 110.332 12 108.398 12V16ZM109.267 16.6542L117.967 31.0542L121.39 28.9858L112.69 14.5858L109.267 16.6542ZM121.39 31.0542L130.09 16.6542L126.667 14.5858L117.967 28.9858L121.39 31.0542ZM130.127 16.5913C130.418 16.0663 130.652 16 130.958 16V12C129.025 12 127.538 13.0137 126.63 14.6487L130.127 16.5913ZM164.257 44.3H162.257V46.3H164.257V44.3ZM183.877 55.52L182.463 54.1058L183.877 55.52ZM150.337 55.52L151.751 54.1058L150.337 55.52ZM150.337 14.48L151.751 15.8942V15.8942L150.337 14.48ZM183.397 14.48L181.983 15.8942V15.8942L183.397 14.48ZM183.397 25.22L181.983 23.8058V23.8058L183.397 25.22ZM164.257 25.7V23.7H162.257V25.7H164.257ZM164.257 29.48H162.257V31.48H164.257V29.48ZM182.077 29.96L183.491 28.5458L183.491 28.5458L182.077 29.96ZM182.077 40.04L183.491 41.4542L183.491 41.4542L182.077 40.04ZM164.257 40.52V38.52H162.257V40.52H164.257ZM164.257 46.3H182.737V42.3H164.257V46.3ZM182.737 46.3C182.709 46.3 182.648 46.2935 182.576 46.2633C182.505 46.2335 182.468 46.1992 182.463 46.1942L185.291 43.3658C184.608 42.6827 183.724 42.3 182.737 42.3V46.3ZM182.463 46.1942C182.458 46.1892 182.424 46.1519 182.394 46.0811C182.364 46.0093 182.357 45.9484 182.357 45.92H186.357C186.357 44.9329 185.974 44.0489 185.291 43.3658L182.463 46.1942ZM182.357 45.92V54.38H186.357V45.92H182.357ZM182.357 54.38C182.357 54.3516 182.364 54.2907 182.394 54.2189C182.424 54.1481 182.458 54.1108 182.463 54.1058L185.291 56.9342C185.974 56.2511 186.357 55.3671 186.357 54.38H182.357ZM182.463 54.1058C182.468 54.1008 182.505 54.0665 182.576 54.0367C182.648 54.0065 182.709 54 182.737 54V58C183.724 58 184.608 57.6173 185.291 56.9342L182.463 54.1058ZM182.737 54H151.477V58H182.737V54ZM151.477 54C151.505 54 151.566 54.0065 151.638 54.0367C151.709 54.0665 151.746 54.1008 151.751 54.1058L148.923 56.9342C149.606 57.6173 150.49 58 151.477 58V54ZM151.751 54.1058C151.756 54.1108 151.791 54.1481 151.82 54.2189C151.851 54.2907 151.857 54.3516 151.857 54.38H147.857C147.857 55.3671 148.24 56.2511 148.923 56.9342L151.751 54.1058ZM151.857 54.38V15.62H147.857V54.38H151.857ZM151.857 15.62C151.857 15.6484 151.851 15.7093 151.82 15.7811C151.791 15.8519 151.756 15.8892 151.751 15.8942L148.923 13.0658C148.24 13.7489 147.857 14.6329 147.857 15.62H151.857ZM151.751 15.8942C151.746 15.8992 151.709 15.9335 151.638 15.9633C151.566 15.9935 151.505 16 151.477 16V12C150.49 12 149.606 12.3827 148.923 13.0658L151.751 15.8942ZM151.477 16H182.257V12H151.477V16ZM182.257 16C182.229 16 182.168 15.9935 182.096 15.9633C182.025 15.9335 181.988 15.8992 181.983 15.8942L184.811 13.0658C184.128 12.3827 183.244 12 182.257 12V16ZM181.983 15.8942C181.978 15.8892 181.944 15.8519 181.914 15.7811C181.884 15.7093 181.877 15.6484 181.877 15.62H185.877C185.877 14.6329 185.494 13.7489 184.811 13.0658L181.983 15.8942ZM181.877 15.62V24.08H185.877V15.62H181.877ZM181.877 24.08C181.877 24.0516 181.884 23.9907 181.914 23.9189C181.944 23.8481 181.978 23.8108 181.983 23.8058L184.811 26.6342C185.494 25.9511 185.877 25.0671 185.877 24.08H181.877ZM181.983 23.8058C181.988 23.8008 182.025 23.7665 182.096 23.7367C182.168 23.7065 182.229 23.7 182.257 23.7V27.7C183.244 27.7 184.128 27.3173 184.811 26.6342L181.983 23.8058ZM182.257 23.7H164.257V27.7H182.257V23.7ZM162.257 25.7V29.48H166.257V25.7H162.257ZM164.257 31.48H180.937V27.48H164.257V31.48ZM180.937 31.48C180.909 31.48 180.848 31.4735 180.776 31.4433C180.705 31.4135 180.668 31.3792 180.663 31.3742L183.491 28.5458C182.808 27.8627 181.924 27.48 180.937 27.48V31.48ZM180.663 31.3742C180.658 31.3692 180.624 31.3319 180.594 31.2611C180.564 31.1893 180.557 31.1284 180.557 31.1H184.557C184.557 30.1129 184.174 29.2289 183.491 28.5458L180.663 31.3742ZM180.557 31.1V38.9H184.557V31.1H180.557ZM180.557 38.9C180.557 38.8716 180.564 38.8107 180.594 38.7389C180.624 38.6681 180.658 38.6308 180.663 38.6258L183.491 41.4542C184.174 40.7711 184.557 39.8871 184.557 38.9H180.557ZM180.663 38.6258C180.668 38.6208 180.705 38.5865 180.776 38.5567C180.848 38.5265 180.909 38.52 180.937 38.52V42.52C181.924 42.52 182.808 42.1373 183.491 41.4542L180.663 38.6258ZM180.937 38.52H164.257V42.52H180.937V38.52ZM162.257 40.52V44.3H166.257V40.52H162.257Z" fill="#1E1E1E"/>
<path d="M192.038 24.22V22.18C192.038 19.9 192.848 18.15 194.468 16.93C196.088 15.71 198.178 15.1 200.738 15.1C203.298 15.1 205.388 15.71 207.008 16.93C208.628 18.15 209.438 19.9 209.438 22.18V24.22C209.438 26.52 208.658 28.28 207.098 29.5C205.538 30.7 203.418 31.3 200.738 31.3C198.058 31.3 195.938 30.7 194.378 29.5C192.818 28.28 192.038 26.52 192.038 24.22ZM202.088 24.46V21.94C202.088 21.18 201.988 20.65 201.788 20.35C201.588 20.05 201.238 19.9 200.738 19.9C200.238 19.9 199.888 20.05 199.688 20.35C199.488 20.65 199.388 21.18 199.388 21.94V24.46C199.388 25.26 199.488 25.8 199.688 26.08C199.888 26.36 200.238 26.5 200.738 26.5C201.238 26.5 201.588 26.35 201.788 26.05C201.988 25.75 202.088 25.22 202.088 24.46ZM220.7 15.04V15.4H224.09C224.31 15.4 224.5 15.48 224.66 15.64C224.82 15.8 224.9 15.99 224.9 16.21V19.84C224.9 20.06 224.82 20.25 224.66 20.41C224.5 20.57 224.31 20.65 224.09 20.65H220.7V30.19C220.7 30.41 220.62 30.6 220.46 30.76C220.3 30.92 220.11 31 219.89 31H214.64C214.42 31 214.23 30.92 214.07 30.76C213.91 30.6 213.83 30.41 213.83 30.19V20.65H211.76C211.54 20.65 211.35 20.57 211.19 20.41C211.03 20.25 210.95 20.06 210.95 19.84V16.21C210.95 15.99 211.03 15.8 211.19 15.64C211.35 15.48 211.54 15.4 211.76 15.4H213.83V14.89C213.83 12.61 214.52 11.03 215.9 10.15C217.28 9.25 219.19 8.8 221.63 8.8H224.42C224.64 8.8 224.83 8.88 224.99 9.04C225.15 9.2 225.23 9.39 225.23 9.61V13.24C225.23 13.46 225.15 13.65 224.99 13.81C224.83 13.97 224.64 14.05 224.42 14.05H221.99C221.13 14.05 220.7 14.38 220.7 15.04Z" fill="white"/>
<path d="M194.468 16.93L195.671 18.5276L194.468 16.93ZM207.008 16.93L208.211 15.3324L207.008 16.93ZM207.098 29.5L208.317 31.0852L208.324 31.0804L208.33 31.0754L207.098 29.5ZM194.378 29.5L193.146 31.0754L193.152 31.0804L193.158 31.0852L194.378 29.5ZM201.788 20.35L203.452 19.2406L203.452 19.2406L201.788 20.35ZM199.688 20.35L201.352 21.4594H201.352L199.688 20.35ZM199.688 26.08L201.315 24.9175L201.315 24.9175L199.688 26.08ZM194.038 24.22V22.18H190.038V24.22H194.038ZM194.038 22.18C194.038 20.4387 194.62 19.319 195.671 18.5276L193.265 15.3324C191.075 16.981 190.038 19.3613 190.038 22.18H194.038ZM195.671 18.5276C196.862 17.6305 198.497 17.1 200.738 17.1V13.1C197.859 13.1 195.313 13.7895 193.265 15.3324L195.671 18.5276ZM200.738 17.1C202.979 17.1 204.613 17.6305 205.805 18.5276L208.211 15.3324C206.162 13.7895 203.617 13.1 200.738 13.1V17.1ZM205.805 18.5276C206.855 19.319 207.438 20.4387 207.438 22.18H211.438C211.438 19.3613 210.4 16.981 208.211 15.3324L205.805 18.5276ZM207.438 22.18V24.22H211.438V22.18H207.438ZM207.438 24.22C207.438 26.0166 206.859 27.1476 205.866 27.9246L208.33 31.0754C210.456 29.4124 211.438 27.0234 211.438 24.22H207.438ZM205.878 27.9148C204.775 28.7633 203.134 29.3 200.738 29.3V33.3C203.701 33.3 206.3 32.6367 208.317 31.0852L205.878 27.9148ZM200.738 29.3C198.341 29.3 196.7 28.7633 195.597 27.9148L193.158 31.0852C195.175 32.6367 197.774 33.3 200.738 33.3V29.3ZM195.61 27.9246C194.616 27.1476 194.038 26.0166 194.038 24.22H190.038C190.038 27.0234 191.019 29.4124 193.146 31.0754L195.61 27.9246ZM204.088 24.46V21.94H200.088V24.46H204.088ZM204.088 21.94C204.088 21.1373 204.007 20.0737 203.452 19.2406L200.124 21.4594C200.067 21.3746 200.044 21.3132 200.038 21.298C200.032 21.2819 200.038 21.2937 200.047 21.3433C200.067 21.4478 200.088 21.6383 200.088 21.94H204.088ZM203.452 19.2406C202.748 18.1844 201.624 17.9 200.738 17.9V21.9C200.798 21.9 200.726 21.9102 200.587 21.8508C200.427 21.782 200.251 21.6507 200.124 21.4594L203.452 19.2406ZM200.738 17.9C199.852 17.9 198.728 18.1844 198.024 19.2406L201.352 21.4594C201.224 21.6507 201.049 21.782 200.888 21.8508C200.749 21.9102 200.678 21.9 200.738 21.9V17.9ZM198.024 19.2406C197.468 20.0737 197.388 21.1373 197.388 21.94H201.388C201.388 21.6383 201.408 21.4478 201.428 21.3433C201.437 21.2937 201.443 21.2819 201.437 21.298C201.432 21.3132 201.408 21.3746 201.352 21.4594L198.024 19.2406ZM197.388 21.94V24.46H201.388V21.94H197.388ZM197.388 24.46C197.388 24.9322 197.416 25.3983 197.496 25.8292C197.571 26.2344 197.719 26.7642 198.06 27.2425L201.315 24.9175C201.393 25.027 201.426 25.1106 201.435 25.1341C201.444 25.1593 201.439 25.1526 201.429 25.1008C201.409 24.9917 201.388 24.7878 201.388 24.46H197.388ZM198.06 27.2425C198.785 28.2577 199.902 28.5 200.738 28.5V24.5C200.664 24.5 200.719 24.4882 200.843 24.538C200.988 24.5961 201.172 24.7167 201.315 24.9175L198.06 27.2425ZM200.738 28.5C201.624 28.5 202.748 28.2156 203.452 27.1594L200.124 24.9406C200.251 24.7493 200.427 24.618 200.587 24.5492C200.726 24.4897 200.798 24.5 200.738 24.5V28.5ZM203.452 27.1594C204.007 26.3263 204.088 25.2627 204.088 24.46H200.088C200.088 24.7617 200.067 24.9522 200.047 25.0567C200.038 25.1063 200.032 25.1181 200.038 25.102C200.044 25.0868 200.067 25.0254 200.124 24.9406L203.452 27.1594ZM220.7 15.4H218.7V17.4H220.7V15.4ZM224.66 15.64L226.074 14.2258L226.074 14.2258L224.66 15.64ZM224.66 20.41L226.074 21.8242L226.074 21.8242L224.66 20.41ZM220.7 20.65V18.65H218.7V20.65H220.7ZM220.46 30.76L221.874 32.1742L221.874 32.1742L220.46 30.76ZM214.07 30.76L212.655 32.1742L214.07 30.76ZM213.83 20.65H215.83V18.65H213.83V20.65ZM211.19 20.41L209.775 21.8242L209.775 21.8242L211.19 20.41ZM211.19 15.64L212.604 17.0542L211.19 15.64ZM213.83 15.4V17.4H215.83V15.4H213.83ZM215.9 10.15L216.975 11.8363L216.983 11.8308L216.992 11.8252L215.9 10.15ZM224.99 9.04L226.404 7.62578V7.62578L224.99 9.04ZM224.99 13.81L223.575 12.3958L223.575 12.3958L224.99 13.81ZM218.7 15.04V15.4H222.7V15.04H218.7ZM220.7 17.4H224.09V13.4H220.7V17.4ZM224.09 17.4C223.951 17.4 223.788 17.3735 223.621 17.3033C223.455 17.2335 223.33 17.1392 223.245 17.0542L226.074 14.2258C225.551 13.7027 224.857 13.4 224.09 13.4V17.4ZM223.245 17.0542C223.16 16.9692 223.066 16.8444 222.996 16.6786C222.926 16.5118 222.9 16.3484 222.9 16.21H226.9C226.9 15.4429 226.597 14.7489 226.074 14.2258L223.245 17.0542ZM222.9 16.21V19.84H226.9V16.21H222.9ZM222.9 19.84C222.9 19.7016 222.926 19.5382 222.996 19.3714C223.066 19.2056 223.16 19.0808 223.245 18.9958L226.074 21.8242C226.597 21.3011 226.9 20.6071 226.9 19.84H222.9ZM223.245 18.9958C223.33 18.9108 223.455 18.8165 223.621 18.7467C223.788 18.6765 223.951 18.65 224.09 18.65V22.65C224.857 22.65 225.551 22.3473 226.074 21.8242L223.245 18.9958ZM224.09 18.65H220.7V22.65H224.09V18.65ZM218.7 20.65V30.19H222.7V20.65H218.7ZM218.7 30.19C218.7 30.0516 218.726 29.8882 218.796 29.7214C218.866 29.5556 218.96 29.4308 219.045 29.3458L221.874 32.1742C222.397 31.6511 222.7 30.9571 222.7 30.19H218.7ZM219.045 29.3458C219.13 29.2608 219.255 29.1665 219.421 29.0967C219.588 29.0265 219.751 29 219.89 29V33C220.657 33 221.351 32.6973 221.874 32.1742L219.045 29.3458ZM219.89 29H214.64V33H219.89V29ZM214.64 29C214.778 29 214.941 29.0265 215.108 29.0967C215.274 29.1665 215.399 29.2608 215.484 29.3458L212.655 32.1742C213.178 32.6973 213.872 33 214.64 33V29ZM215.484 29.3458C215.569 29.4308 215.663 29.5556 215.733 29.7214C215.803 29.8882 215.83 30.0516 215.83 30.19H211.83C211.83 30.9571 212.132 31.6511 212.655 32.1742L215.484 29.3458ZM215.83 30.19V20.65H211.83V30.19H215.83ZM213.83 18.65H211.76V22.65H213.83V18.65ZM211.76 18.65C211.898 18.65 212.061 18.6765 212.228 18.7467C212.394 18.8165 212.519 18.9108 212.604 18.9958L209.775 21.8242C210.298 22.3473 210.992 22.65 211.76 22.65V18.65ZM212.604 18.9958C212.689 19.0808 212.783 19.2056 212.853 19.3714C212.923 19.5382 212.95 19.7016 212.95 19.84H208.95C208.95 20.6071 209.252 21.3011 209.775 21.8242L212.604 18.9958ZM212.95 19.84V16.21H208.95V19.84H212.95ZM212.95 16.21C212.95 16.3484 212.923 16.5118 212.853 16.6786C212.783 16.8444 212.689 16.9692 212.604 17.0542L209.775 14.2258C209.252 14.7489 208.95 15.4429 208.95 16.21H212.95ZM212.604 17.0542C212.519 17.1392 212.394 17.2335 212.228 17.3033C212.061 17.3735 211.898 17.4 211.76 17.4V13.4C210.992 13.4 210.298 13.7027 209.775 14.2258L212.604 17.0542ZM211.76 17.4H213.83V13.4H211.76V17.4ZM215.83 15.4V14.89H211.83V15.4H215.83ZM215.83 14.89C215.83 12.998 216.382 12.2144 216.975 11.8363L214.824 8.46368C212.657 9.84563 211.83 12.222 211.83 14.89H215.83ZM216.992 11.8252C217.926 11.2161 219.402 10.8 221.63 10.8V6.8C218.977 6.8 216.633 7.28387 214.807 8.47478L216.992 11.8252ZM221.63 10.8H224.42V6.8H221.63V10.8ZM224.42 10.8C224.281 10.8 224.118 10.7735 223.951 10.7033C223.785 10.6335 223.66 10.5392 223.575 10.4542L226.404 7.62578C225.881 7.10268 225.187 6.8 224.42 6.8V10.8ZM223.575 10.4542C223.49 10.3692 223.396 10.2444 223.326 10.0786C223.256 9.91176 223.23 9.74843 223.23 9.61H227.23C227.23 8.84287 226.927 8.14889 226.404 7.62578L223.575 10.4542ZM223.23 9.61V13.24H227.23V9.61H223.23ZM223.23 13.24C223.23 13.1016 223.256 12.9382 223.326 12.7714C223.396 12.6056 223.49 12.4808 223.575 12.3958L226.404 15.2242C226.927 14.7011 227.23 14.0071 227.23 13.24H223.23ZM223.575 12.3958C223.66 12.3108 223.785 12.2165 223.951 12.1467C224.118 12.0765 224.281 12.05 224.42 12.05V16.05C225.187 16.05 225.881 15.7473 226.404 15.2242L223.575 12.3958ZM224.42 12.05H221.99V16.05H224.42V12.05ZM221.99 12.05C221.36 12.05 220.521 12.1611 219.804 12.7109C218.988 13.3376 218.7 14.239 218.7 15.04H222.7C222.7 15.0895 222.692 15.2265 222.615 15.4037C222.532 15.5927 222.4 15.7609 222.24 15.8841C221.953 16.1039 221.759 16.05 221.99 16.05V12.05Z" fill="#1E1E1E"/>
<path d="M201.488 45.65V48.95C201.488 49.95 201.918 50.45 202.778 50.45H205.508C205.728 50.45 205.918 50.53 206.078 50.69C206.238 50.85 206.318 51.04 206.318 51.26V55.19C206.318 55.41 206.238 55.6 206.078 55.76C205.918 55.92 205.728 56 205.508 56H202.118C197.118 56 194.618 53.85 194.618 49.55V45.65H192.248C192.028 45.65 191.838 45.57 191.678 45.41C191.518 45.25 191.438 45.06 191.438 44.84V41.21C191.438 40.99 191.518 40.8 191.678 40.64C191.838 40.48 192.028 40.4 192.248 40.4H194.618V35.51C194.618 35.29 194.698 35.1 194.858 34.94C195.018 34.78 195.208 34.7 195.428 34.7H200.678C200.898 34.7 201.088 34.78 201.248 34.94C201.408 35.1 201.488 35.29 201.488 35.51V40.4H205.268C205.488 40.4 205.678 40.48 205.838 40.64C205.998 40.8 206.078 40.99 206.078 41.21V44.84C206.078 45.06 205.998 45.25 205.838 45.41C205.678 45.57 205.488 45.65 205.268 45.65H201.488ZM215.895 47.12V55.19C215.895 55.41 215.815 55.6 215.655 55.76C215.495 55.92 215.305 56 215.085 56H209.235C209.015 56 208.825 55.92 208.665 55.76C208.505 55.6 208.425 55.41 208.425 55.19V35.51C208.425 35.29 208.505 35.1 208.665 34.94C208.825 34.78 209.015 34.7 209.235 34.7H215.085C215.305 34.7 215.495 34.78 215.655 34.94C215.815 35.1 215.895 35.29 215.895 35.51V41.96C217.035 40.72 218.495 40.1 220.275 40.1C222.055 40.1 223.525 40.68 224.685 41.84C225.845 43 226.425 44.69 226.425 46.91V55.16C226.425 55.38 226.345 55.57 226.185 55.73C226.025 55.89 225.835 55.97 225.615 55.97H219.735C219.515 55.97 219.325 55.89 219.165 55.73C219.005 55.57 218.925 55.38 218.925 55.16V47.12C218.925 46.02 218.415 45.47 217.395 45.47C216.395 45.47 215.895 46.02 215.895 47.12ZM245.125 49.97H236.185V50.12C236.185 51.34 236.575 51.95 237.355 51.95C237.575 51.95 237.845 51.79 238.165 51.47C238.485 51.15 238.835 50.99 239.215 50.99H244.885C245.325 50.99 245.545 51.21 245.545 51.65C245.545 52.63 244.805 53.65 243.325 54.71C241.865 55.77 239.875 56.3 237.355 56.3C234.855 56.3 232.805 55.65 231.205 54.35C229.625 53.03 228.835 51.22 228.835 48.92V47.48C228.835 45.3 229.645 43.53 231.265 42.17C232.885 40.79 235.005 40.1 237.625 40.1C240.265 40.1 242.305 40.87 243.745 42.41C245.205 43.95 245.935 45.9 245.935 48.26V49.16C245.935 49.38 245.855 49.57 245.695 49.73C245.535 49.89 245.345 49.97 245.125 49.97ZM238.585 46.1C238.585 44.9 238.185 44.3 237.385 44.3C236.585 44.3 236.185 44.9 236.185 46.1V46.22H238.585V46.1Z" fill="white"/>
<path d="M201.488 45.65V43.65H199.488V45.65H201.488ZM206.078 50.69L204.664 52.1042L204.664 52.1042L206.078 50.69ZM206.078 55.76L204.664 54.3458L204.664 54.3458L206.078 55.76ZM194.618 45.65H196.618V43.65H194.618V45.65ZM191.678 45.41L190.264 46.8242L190.264 46.8242L191.678 45.41ZM191.678 40.64L193.092 42.0542H193.092L191.678 40.64ZM194.618 40.4V42.4H196.618V40.4H194.618ZM201.248 34.94L199.834 36.3542L199.834 36.3542L201.248 34.94ZM201.488 40.4H199.488V42.4H201.488V40.4ZM205.838 40.64L207.252 39.2258L207.252 39.2258L205.838 40.64ZM205.838 45.41L207.252 46.8242L207.252 46.8242L205.838 45.41ZM199.488 45.65V48.95H203.488V45.65H199.488ZM199.488 48.95C199.488 49.6906 199.641 50.6194 200.294 51.3791C200.997 52.1965 201.954 52.45 202.778 52.45V48.45C202.752 48.45 202.818 48.4458 202.936 48.4914C203.066 48.5417 203.209 48.6343 203.327 48.7709C203.55 49.0306 203.488 49.2094 203.488 48.95H199.488ZM202.778 52.45H205.508V48.45H202.778V52.45ZM205.508 52.45C205.369 52.45 205.206 52.4235 205.039 52.3533C204.873 52.2835 204.749 52.1892 204.664 52.1042L207.492 49.2758C206.969 48.7527 206.275 48.45 205.508 48.45V52.45ZM204.664 52.1042C204.579 52.0192 204.484 51.8944 204.415 51.7286C204.344 51.5618 204.318 51.3984 204.318 51.26H208.318C208.318 50.4929 208.015 49.7989 207.492 49.2758L204.664 52.1042ZM204.318 51.26V55.19H208.318V51.26H204.318ZM204.318 55.19C204.318 55.0516 204.344 54.8882 204.415 54.7214C204.484 54.5556 204.579 54.4308 204.664 54.3458L207.492 57.1742C208.015 56.6511 208.318 55.9571 208.318 55.19H204.318ZM204.664 54.3458C204.749 54.2608 204.873 54.1665 205.039 54.0967C205.206 54.0265 205.369 54 205.508 54V58C206.275 58 206.969 57.6973 207.492 57.1742L204.664 54.3458ZM205.508 54H202.118V58H205.508V54ZM202.118 54C199.858 54 198.537 53.5078 197.797 52.8711C197.114 52.2841 196.618 51.3064 196.618 49.55H192.618C192.618 52.0936 193.371 54.3409 195.189 55.9039C196.948 57.4172 199.377 58 202.118 58V54ZM196.618 49.55V45.65H192.618V49.55H196.618ZM194.618 43.65H192.248V47.65H194.618V43.65ZM192.248 43.65C192.386 43.65 192.55 43.6765 192.716 43.7467C192.882 43.8165 193.007 43.9108 193.092 43.9958L190.264 46.8242C190.787 47.3473 191.481 47.65 192.248 47.65V43.65ZM193.092 43.9958C193.177 44.0808 193.271 44.2056 193.341 44.3714C193.411 44.5382 193.438 44.7016 193.438 44.84H189.438C189.438 45.6071 189.74 46.3011 190.264 46.8242L193.092 43.9958ZM193.438 44.84V41.21H189.438V44.84H193.438ZM193.438 41.21C193.438 41.3484 193.411 41.5118 193.341 41.6786C193.271 41.8444 193.177 41.9692 193.092 42.0542L190.264 39.2258C189.74 39.7489 189.438 40.4429 189.438 41.21H193.438ZM193.092 42.0542C193.007 42.1392 192.882 42.2335 192.716 42.3033C192.55 42.3735 192.386 42.4 192.248 42.4V38.4C191.481 38.4 190.787 38.7027 190.264 39.2258L193.092 42.0542ZM192.248 42.4H194.618V38.4H192.248V42.4ZM196.618 40.4V35.51H192.618V40.4H196.618ZM196.618 35.51C196.618 35.6484 196.591 35.8118 196.521 35.9786C196.451 36.1444 196.357 36.2692 196.272 36.3542L193.444 33.5258C192.92 34.0489 192.618 34.7429 192.618 35.51H196.618ZM196.272 36.3542C196.187 36.4392 196.062 36.5335 195.896 36.6033C195.73 36.6735 195.566 36.7 195.428 36.7V32.7C194.661 32.7 193.967 33.0027 193.444 33.5258L196.272 36.3542ZM195.428 36.7H200.678V32.7H195.428V36.7ZM200.678 36.7C200.539 36.7 200.376 36.6735 200.209 36.6033C200.043 36.5335 199.919 36.4392 199.834 36.3542L202.662 33.5258C202.139 33.0027 201.445 32.7 200.678 32.7V36.7ZM199.834 36.3542C199.749 36.2692 199.654 36.1444 199.585 35.9786C199.514 35.8118 199.488 35.6484 199.488 35.51H203.488C203.488 34.7429 203.185 34.0489 202.662 33.5258L199.834 36.3542ZM199.488 35.51V40.4H203.488V35.51H199.488ZM201.488 42.4H205.268V38.4H201.488V42.4ZM205.268 42.4C205.129 42.4 204.966 42.3735 204.799 42.3033C204.633 42.2335 204.509 42.1392 204.424 42.0542L207.252 39.2258C206.729 38.7027 206.035 38.4 205.268 38.4V42.4ZM204.424 42.0542C204.339 41.9692 204.244 41.8444 204.175 41.6786C204.104 41.5118 204.078 41.3484 204.078 41.21H208.078C208.078 40.4429 207.775 39.7489 207.252 39.2258L204.424 42.0542ZM204.078 41.21V44.84H208.078V41.21H204.078ZM204.078 44.84C204.078 44.7016 204.104 44.5382 204.175 44.3714C204.244 44.2056 204.339 44.0808 204.424 43.9958L207.252 46.8242C207.775 46.3011 208.078 45.6071 208.078 44.84H204.078ZM204.424 43.9958C204.509 43.9108 204.633 43.8165 204.799 43.7467C204.966 43.6765 205.129 43.65 205.268 43.65V47.65C206.035 47.65 206.729 47.3473 207.252 46.8242L204.424 43.9958ZM205.268 43.65H201.488V47.65H205.268V43.65ZM215.655 55.76L214.241 54.3458L214.241 54.3458L215.655 55.76ZM208.665 55.76L210.08 54.3458L208.665 55.76ZM208.665 34.94L210.08 36.3542V36.3542L208.665 34.94ZM215.655 34.94L214.241 36.3542L214.241 36.3542L215.655 34.94ZM215.895 41.96H213.895V47.0905L217.368 43.3136L215.895 41.96ZM224.685 41.84L223.271 43.2542V43.2542L224.685 41.84ZM226.185 55.73L224.771 54.3158L226.185 55.73ZM219.165 55.73L220.58 54.3158L220.58 54.3158L219.165 55.73ZM213.895 47.12V55.19H217.895V47.12H213.895ZM213.895 55.19C213.895 55.0516 213.922 54.8882 213.992 54.7214C214.062 54.5556 214.156 54.4308 214.241 54.3458L217.07 57.1742C217.593 56.6511 217.895 55.9571 217.895 55.19H213.895ZM214.241 54.3458C214.326 54.2608 214.451 54.1665 214.617 54.0967C214.784 54.0265 214.947 54 215.085 54V58C215.852 58 216.546 57.6973 217.07 57.1742L214.241 54.3458ZM215.085 54H209.235V58H215.085V54ZM209.235 54C209.374 54 209.537 54.0265 209.704 54.0967C209.87 54.1665 209.994 54.2608 210.08 54.3458L207.251 57.1742C207.774 57.6973 208.468 58 209.235 58V54ZM210.08 54.3458C210.165 54.4308 210.259 54.5556 210.329 54.7214C210.399 54.8882 210.425 55.0516 210.425 55.19H206.425C206.425 55.9571 206.728 56.6511 207.251 57.1742L210.08 54.3458ZM210.425 55.19V35.51H206.425V55.19H210.425ZM210.425 35.51C210.425 35.6484 210.399 35.8118 210.329 35.9786C210.259 36.1444 210.165 36.2692 210.08 36.3542L207.251 33.5258C206.728 34.0489 206.425 34.7429 206.425 35.51H210.425ZM210.08 36.3542C209.994 36.4392 209.87 36.5335 209.704 36.6033C209.537 36.6735 209.374 36.7 209.235 36.7V32.7C208.468 32.7 207.774 33.0027 207.251 33.5258L210.08 36.3542ZM209.235 36.7H215.085V32.7H209.235V36.7ZM215.085 36.7C214.947 36.7 214.784 36.6735 214.617 36.6033C214.451 36.5335 214.326 36.4392 214.241 36.3542L217.07 33.5258C216.546 33.0027 215.852 32.7 215.085 32.7V36.7ZM214.241 36.3542C214.156 36.2692 214.062 36.1444 213.992 35.9786C213.922 35.8118 213.895 35.6484 213.895 35.51H217.895C217.895 34.7429 217.593 34.0489 217.07 33.5258L214.241 36.3542ZM213.895 35.51V41.96H217.895V35.51H213.895ZM217.368 43.3136C218.105 42.5112 219.019 42.1 220.275 42.1V38.1C217.971 38.1 215.965 38.9288 214.423 40.6064L217.368 43.3136ZM220.275 42.1C221.575 42.1 222.52 42.5031 223.271 43.2542L226.1 40.4258C224.531 38.8569 222.536 38.1 220.275 38.1V42.1ZM223.271 43.2542C223.939 43.922 224.425 45.0279 224.425 46.91H228.425C228.425 44.3521 227.752 42.078 226.1 40.4258L223.271 43.2542ZM224.425 46.91V55.16H228.425V46.91H224.425ZM224.425 55.16C224.425 55.0216 224.452 54.8582 224.522 54.6914C224.592 54.5256 224.686 54.4008 224.771 54.3158L227.6 57.1442C228.123 56.6211 228.425 55.9271 228.425 55.16H224.425ZM224.771 54.3158C224.856 54.2308 224.981 54.1365 225.147 54.0667C225.314 53.9965 225.477 53.97 225.615 53.97V57.97C226.382 57.97 227.076 57.6673 227.6 57.1442L224.771 54.3158ZM225.615 53.97H219.735V57.97H225.615V53.97ZM219.735 53.97C219.874 53.97 220.037 53.9965 220.204 54.0667C220.37 54.1365 220.494 54.2308 220.58 54.3158L217.751 57.1442C218.274 57.6673 218.968 57.97 219.735 57.97V53.97ZM220.58 54.3158C220.665 54.4008 220.759 54.5256 220.829 54.6914C220.899 54.8582 220.925 55.0216 220.925 55.16H216.925C216.925 55.9271 217.228 56.6211 217.751 57.1442L220.58 54.3158ZM220.925 55.16V47.12H216.925V55.16H220.925ZM220.925 47.12C220.925 46.2976 220.738 45.3082 220.009 44.5226C219.254 43.7086 218.254 43.47 217.395 43.47V47.47C217.476 47.47 217.461 47.4815 217.388 47.4552C217.304 47.4249 217.184 47.359 217.076 47.2424C216.858 47.0068 216.925 46.8424 216.925 47.12H220.925ZM217.395 43.47C216.535 43.47 215.538 43.7153 214.79 44.5372C214.076 45.3229 213.895 46.3064 213.895 47.12H217.895C217.895 46.8336 217.964 46.9921 217.75 47.2278C217.642 47.3467 217.52 47.4171 217.428 47.4509C217.347 47.4805 217.323 47.47 217.395 47.47V43.47ZM236.185 49.97V47.97H234.185V49.97H236.185ZM243.325 54.71L242.16 53.084L242.15 53.0916L243.325 54.71ZM231.205 54.35L229.922 55.8848L229.933 55.8936L229.943 55.9022L231.205 54.35ZM231.265 42.17L232.551 43.7018L232.556 43.6972L232.562 43.6925L231.265 42.17ZM243.745 42.41L242.284 43.776L242.293 43.786L243.745 42.41ZM245.695 49.73L244.28 48.3158L244.28 48.3158L245.695 49.73ZM236.185 46.22H234.185V48.22H236.185V46.22ZM238.585 46.22V48.22H240.585V46.22H238.585ZM245.125 47.97H236.185V51.97H245.125V47.97ZM234.185 49.97V50.12H238.185V49.97H234.185ZM234.185 50.12C234.185 50.8788 234.294 51.7912 234.792 52.5698C235.387 53.5009 236.345 53.95 237.355 53.95V49.95C237.423 49.95 237.58 49.9647 237.767 50.0622C237.961 50.163 238.09 50.3027 238.162 50.4152C238.226 50.5142 238.227 50.5631 238.214 50.5038C238.202 50.4461 238.185 50.3246 238.185 50.12H234.185ZM237.355 53.95C237.945 53.95 238.423 53.7397 238.742 53.5506C239.068 53.357 239.348 53.1152 239.579 52.8842L236.75 50.0558C236.661 50.1448 236.646 50.143 236.703 50.1094C236.752 50.0803 236.985 49.95 237.355 49.95V53.95ZM239.579 52.8842C239.599 52.8637 239.575 52.8941 239.499 52.9289C239.416 52.9667 239.315 52.99 239.215 52.99V48.99C238.205 48.99 237.369 49.4375 236.75 50.0558L239.579 52.8842ZM239.215 52.99H244.885V48.99H239.215V52.99ZM244.885 52.99C244.796 52.99 244.363 52.9666 243.965 52.5692C243.568 52.1719 243.545 51.7383 243.545 51.65H247.545C247.545 51.1217 247.411 50.3581 246.794 49.7408C246.177 49.1234 245.413 48.99 244.885 48.99V52.99ZM243.545 51.65C243.545 51.6115 243.564 51.7092 243.371 51.9755C243.17 52.253 242.796 52.6285 242.16 53.084L244.489 56.336C246.067 55.2061 247.545 53.6637 247.545 51.65H243.545ZM242.15 53.0916C241.143 53.8225 239.615 54.3 237.355 54.3V58.3C240.134 58.3 242.586 57.7175 244.5 56.3284L242.15 53.0916ZM237.355 54.3C235.213 54.3 233.638 53.7502 232.466 52.7978L229.943 55.9022C231.971 57.5498 234.496 58.3 237.355 58.3V54.3ZM232.487 52.8152C231.419 51.9226 230.835 50.7056 230.835 48.92H226.835C226.835 51.7344 227.831 54.1374 229.922 55.8848L232.487 52.8152ZM230.835 48.92V47.48H226.835V48.92H230.835ZM230.835 47.48C230.835 45.8702 231.399 44.6686 232.551 43.7018L229.979 40.6382C227.89 42.3914 226.835 44.7298 226.835 47.48H230.835ZM232.562 43.6925C233.742 42.6873 235.366 42.1 237.625 42.1V38.1C234.643 38.1 232.028 38.8927 229.968 40.6475L232.562 43.6925ZM237.625 42.1C239.86 42.1 241.313 42.7377 242.284 43.776L245.206 41.044C243.296 39.0023 240.669 38.1 237.625 38.1V42.1ZM242.293 43.786C243.36 44.9116 243.935 46.3496 243.935 48.26H247.935C247.935 45.4504 247.049 42.9884 245.196 41.034L242.293 43.786ZM243.935 48.26V49.16H247.935V48.26H243.935ZM243.935 49.16C243.935 49.0216 243.961 48.8582 244.031 48.6914C244.101 48.5256 244.195 48.4008 244.28 48.3158L247.109 51.1442C247.632 50.6211 247.935 49.9271 247.935 49.16H243.935ZM244.28 48.3158C244.365 48.2308 244.49 48.1365 244.656 48.0667C244.823 47.9965 244.986 47.97 245.125 47.97V51.97C245.892 51.97 246.586 51.6673 247.109 51.1442L244.28 48.3158ZM240.585 46.1C240.585 45.3409 240.47 44.4219 239.949 43.6406C239.332 42.7162 238.367 42.3 237.385 42.3V46.3C237.333 46.3 237.192 46.2895 237.015 46.2014C236.831 46.1091 236.699 45.9766 236.621 45.8594C236.551 45.7556 236.547 45.6983 236.557 45.7464C236.568 45.7937 236.585 45.9048 236.585 46.1H240.585ZM237.385 42.3C236.402 42.3 235.437 42.7162 234.821 43.6406C234.3 44.4219 234.185 45.3409 234.185 46.1H238.185C238.185 45.9048 238.202 45.7937 238.212 45.7464C238.223 45.6983 238.218 45.7556 238.149 45.8594C238.071 45.9766 237.939 46.1091 237.754 46.2014C237.578 46.2895 237.436 46.3 237.385 46.3V42.3ZM234.185 46.1V46.22H238.185V46.1H234.185ZM236.185 48.22H238.585V44.22H236.185V48.22ZM240.585 46.22V46.1H236.585V46.22H240.585Z" fill="#1E1E1E"/>
<path d="M254.803 14H272.083C277.923 14 282.723 15.46 286.483 18.38C290.283 21.26 292.183 25.3 292.183 30.5V39.44C292.183 44.88 290.343 49 286.663 51.8C282.983 54.6 278.143 56 272.143 56H254.803C254.363 56 253.983 55.84 253.663 55.52C253.343 55.2 253.183 54.82 253.183 54.38V15.62C253.183 15.18 253.343 14.8 253.663 14.48C253.983 14.16 254.363 14 254.803 14ZM268.183 25.7V44.3H272.083C273.443 44.3 274.523 43.9 275.323 43.1C276.163 42.26 276.583 41.04 276.583 39.44V30.5C276.583 27.3 275.083 25.7 272.083 25.7H268.183ZM311.909 14H324.929C326.369 14 327.269 14.66 327.629 15.98L341.009 54.26C341.049 54.38 341.069 54.58 341.069 54.86C341.069 55.1 340.929 55.36 340.649 55.64C340.409 55.88 340.109 56 339.749 56H328.649C327.449 56 326.669 55.5 326.309 54.5L324.869 50.54H311.969L310.529 54.5C310.169 55.5 309.389 56 308.189 56H297.089C296.729 56 296.409 55.88 296.129 55.64C295.889 55.36 295.769 55.1 295.769 54.86C295.769 54.58 295.789 54.38 295.829 54.26L309.209 15.98C309.569 14.66 310.469 14 311.909 14ZM315.029 38.84H321.809L318.389 27.68L315.029 38.84ZM369.578 56H357.818C357.378 56 356.998 55.84 356.678 55.52C356.358 55.2 356.198 54.82 356.198 54.38V42.56L342.698 15.86C342.618 15.7 342.578 15.48 342.578 15.2C342.578 14.92 342.698 14.66 342.938 14.42C343.218 14.14 343.538 14 343.898 14H355.178C356.378 14 357.218 14.5 357.698 15.5L363.698 27.56L369.698 15.5C370.178 14.5 371.018 14 372.218 14H383.498C383.858 14 384.158 14.14 384.398 14.42C384.678 14.66 384.818 14.92 384.818 15.2C384.818 15.48 384.778 15.7 384.698 15.86L371.198 42.56V54.38C371.198 54.82 371.038 55.2 370.718 55.52C370.398 55.84 370.018 56 369.578 56Z" fill="white"/>
<path d="M286.483 18.38L285.256 19.9596L285.265 19.9668L285.275 19.9739L286.483 18.38ZM253.663 55.52L255.077 54.1058H255.077L253.663 55.52ZM253.663 14.48L255.077 15.8942L255.077 15.8942L253.663 14.48ZM268.183 25.7V23.7H266.183V25.7H268.183ZM268.183 44.3H266.183V46.3H268.183V44.3ZM275.323 43.1L273.908 41.6858L275.323 43.1ZM254.803 16H272.083V12H254.803V16ZM272.083 16C277.582 16 281.92 17.3693 285.256 19.9596L287.709 16.8004C283.525 13.5507 278.264 12 272.083 12V16ZM285.275 19.9739C288.526 22.438 290.183 25.8605 290.183 30.5H294.183C294.183 24.7395 292.039 20.082 287.691 16.7861L285.275 19.9739ZM290.183 30.5V39.44H294.183V30.5H290.183ZM290.183 39.44C290.183 44.3797 288.543 47.856 285.452 50.2083L287.874 53.3917C292.142 50.144 294.183 45.3803 294.183 39.44H290.183ZM285.452 50.2083C282.211 52.6739 277.836 54 272.143 54V58C278.449 58 283.754 56.5261 287.874 53.3917L285.452 50.2083ZM272.143 54H254.803V58H272.143V54ZM254.803 54C254.831 54 254.892 54.0065 254.964 54.0367C255.034 54.0665 255.072 54.1008 255.077 54.1058L252.248 56.9342C252.931 57.6173 253.815 58 254.803 58V54ZM255.077 54.1058C255.082 54.1108 255.116 54.1481 255.146 54.2189C255.176 54.2907 255.183 54.3516 255.183 54.38H251.183C251.183 55.3671 251.565 56.2511 252.248 56.9342L255.077 54.1058ZM255.183 54.38V15.62H251.183V54.38H255.183ZM255.183 15.62C255.183 15.6484 255.176 15.7093 255.146 15.7811C255.116 15.8519 255.082 15.8892 255.077 15.8942L252.248 13.0658C251.565 13.7489 251.183 14.6329 251.183 15.62H255.183ZM255.077 15.8942C255.072 15.8992 255.034 15.9335 254.964 15.9633C254.892 15.9935 254.831 16 254.803 16V12C253.815 12 252.931 12.3827 252.248 13.0658L255.077 15.8942ZM266.183 25.7V44.3H270.183V25.7H266.183ZM268.183 46.3H272.083V42.3H268.183V46.3ZM272.083 46.3C273.858 46.3 275.488 45.7633 276.737 44.5142L273.908 41.6858C273.557 42.0367 273.027 42.3 272.083 42.3V46.3ZM276.737 44.5142C278.067 43.1836 278.583 41.381 278.583 39.44H274.583C274.583 40.699 274.258 41.3364 273.908 41.6858L276.737 44.5142ZM278.583 39.44V30.5H274.583V39.44H278.583ZM278.583 30.5C278.583 28.6227 278.145 26.8425 276.917 25.5321C275.665 24.1975 273.925 23.7 272.083 23.7V27.7C273.24 27.7 273.75 28.0025 273.999 28.2679C274.27 28.5575 274.583 29.1773 274.583 30.5H278.583ZM272.083 23.7H268.183V27.7H272.083V23.7ZM327.629 15.98L325.699 16.5062L325.717 16.5738L325.741 16.6399L327.629 15.98ZM341.009 54.26L342.906 53.6276L342.901 53.6138L342.897 53.6001L341.009 54.26ZM340.649 55.64L339.234 54.2258L339.234 54.2258L340.649 55.64ZM326.309 54.5L328.19 53.8226L328.188 53.8165L326.309 54.5ZM324.869 50.54L326.748 49.8565L326.269 48.54H324.869V50.54ZM311.969 50.54V48.54H310.568L310.089 49.8565L311.969 50.54ZM310.529 54.5L308.649 53.8165L308.647 53.8226L310.529 54.5ZM296.129 55.64L294.61 56.9416L294.71 57.0584L294.827 57.1585L296.129 55.64ZM295.829 54.26L293.941 53.6001L293.936 53.6138L293.931 53.6275L295.829 54.26ZM309.209 15.98L311.097 16.6399L311.12 16.5738L311.138 16.5062L309.209 15.98ZM315.029 38.84L313.113 38.2634L312.338 40.84H315.029V38.84ZM321.809 38.84V40.84H324.513L323.721 38.254L321.809 38.84ZM318.389 27.68L320.301 27.094L318.372 20.7988L316.473 27.1034L318.389 27.68ZM311.909 16H324.929V12H311.909V16ZM324.929 16C325.347 16 325.482 16.0938 325.501 16.1078C325.51 16.1143 325.61 16.181 325.699 16.5062L329.558 15.4538C329.287 14.459 328.757 13.5357 327.866 12.8822C326.985 12.2362 325.95 12 324.929 12V16ZM325.741 16.6399L339.121 54.9199L342.897 53.6001L329.517 15.3201L325.741 16.6399ZM339.111 54.8924C339.098 54.8527 339.089 54.8192 339.082 54.7938C339.076 54.7682 339.072 54.7478 339.069 54.7336C339.064 54.7062 339.063 54.6933 339.063 54.699C339.064 54.704 339.065 54.7197 339.067 54.7483C339.068 54.7764 339.069 54.8134 339.069 54.86H343.069C343.069 54.5615 343.056 54.0787 342.906 53.6276L339.111 54.8924ZM339.069 54.86C339.069 54.5811 339.151 54.3819 339.203 54.2868C339.25 54.1984 339.28 54.1797 339.234 54.2258L342.063 57.0542C342.486 56.6307 343.069 55.8865 343.069 54.86H339.069ZM339.234 54.2258C339.296 54.1641 339.387 54.0987 339.501 54.053C339.613 54.0083 339.703 54 339.749 54V58C340.603 58 341.423 57.6938 342.063 57.0542L339.234 54.2258ZM339.749 54H328.649V58H339.749V54ZM328.649 54C328.32 54 328.228 53.9319 328.243 53.9412C328.249 53.945 328.253 53.9501 328.25 53.9461C328.245 53.9397 328.22 53.9055 328.19 53.8226L324.427 55.1774C324.733 56.0283 325.27 56.7867 326.084 57.3088C326.879 57.8181 327.777 58 328.649 58V54ZM328.188 53.8165L326.748 49.8565L322.989 51.2235L324.429 55.1835L328.188 53.8165ZM324.869 48.54H311.969V52.54H324.869V48.54ZM310.089 49.8565L308.649 53.8165L312.408 55.1835L313.848 51.2235L310.089 49.8565ZM308.647 53.8226C308.617 53.9055 308.592 53.9397 308.587 53.9461C308.584 53.9501 308.588 53.945 308.594 53.9412C308.609 53.9319 308.517 54 308.189 54V58C309.06 58 309.958 57.8181 310.753 57.3088C311.567 56.7867 312.104 56.0283 312.41 55.1774L308.647 53.8226ZM308.189 54H297.089V58H308.189V54ZM297.089 54C297.135 54 297.204 54.0087 297.281 54.0373C297.356 54.0657 297.407 54.1014 297.43 54.1215L294.827 57.1585C295.46 57.7009 296.239 58 297.089 58V54ZM297.647 54.3384C297.615 54.3005 297.639 54.3194 297.674 54.3969C297.713 54.4796 297.769 54.6401 297.769 54.86H293.769C293.769 55.7758 294.219 56.4853 294.61 56.9416L297.647 54.3384ZM297.769 54.86C297.769 54.8134 297.769 54.7764 297.771 54.7483C297.772 54.7197 297.773 54.704 297.774 54.699C297.774 54.6933 297.773 54.7062 297.768 54.7336C297.765 54.7478 297.761 54.7682 297.755 54.7938C297.748 54.8192 297.739 54.8527 297.726 54.8925L293.931 53.6275C293.781 54.0787 293.769 54.5615 293.769 54.86H297.769ZM297.717 54.9199L311.097 16.6399L307.321 15.3201L293.941 53.6001L297.717 54.9199ZM311.138 16.5062C311.227 16.181 311.327 16.1143 311.336 16.1078C311.355 16.0938 311.49 16 311.909 16V12C310.887 12 309.852 12.2362 308.971 12.8822C308.08 13.5357 307.55 14.459 307.279 15.4538L311.138 16.5062ZM315.029 40.84H321.809V36.84H315.029V40.84ZM323.721 38.254L320.301 27.094L316.476 28.266L319.896 39.426L323.721 38.254ZM316.473 27.1034L313.113 38.2634L316.944 39.4166L320.304 28.2566L316.473 27.1034ZM356.678 55.52L355.264 56.9342L355.264 56.9342L356.678 55.52ZM356.198 42.56H358.198V42.0831L357.983 41.6576L356.198 42.56ZM342.698 15.86L340.909 16.7544L340.913 16.7624L342.698 15.86ZM342.938 14.42L344.352 15.8342V15.8342L342.938 14.42ZM357.698 15.5L355.895 16.3655L355.901 16.3782L355.907 16.3909L357.698 15.5ZM363.698 27.56L361.907 28.4509L363.698 32.05L365.489 28.4509L363.698 27.56ZM369.698 15.5L371.489 16.3909L371.495 16.3782L371.501 16.3655L369.698 15.5ZM384.398 14.42L382.879 15.7216L382.98 15.8384L383.096 15.9385L384.398 14.42ZM384.698 15.86L386.483 16.7624L386.487 16.7544L384.698 15.86ZM371.198 42.56L369.413 41.6576L369.198 42.0831V42.56H371.198ZM370.718 55.52L372.132 56.9342V56.9342L370.718 55.52ZM369.578 54H357.818V58H369.578V54ZM357.818 54C357.846 54 357.907 54.0065 357.979 54.0367C358.05 54.0665 358.087 54.1008 358.092 54.1058L355.264 56.9342C355.947 57.6173 356.831 58 357.818 58V54ZM358.092 54.1058C358.097 54.1108 358.131 54.1481 358.161 54.2189C358.191 54.2907 358.198 54.3516 358.198 54.38H354.198C354.198 55.3671 354.581 56.2511 355.264 56.9342L358.092 54.1058ZM358.198 54.38V42.56H354.198V54.38H358.198ZM357.983 41.6576L344.483 14.9576L340.913 16.7624L354.413 43.4624L357.983 41.6576ZM344.487 14.9656C344.55 15.0912 344.57 15.1852 344.576 15.2172C344.582 15.2504 344.578 15.2486 344.578 15.2H340.578C340.578 15.6325 340.634 16.2034 340.909 16.7544L344.487 14.9656ZM344.578 15.2C344.578 15.3561 344.542 15.5065 344.484 15.6331C344.429 15.7529 344.369 15.8176 344.352 15.8342L341.524 13.0058C340.994 13.536 340.578 14.2805 340.578 15.2H344.578ZM344.352 15.8342C344.339 15.8472 344.286 15.8949 344.19 15.9373C344.089 15.9813 343.985 16 343.898 16V12C342.952 12 342.138 12.3919 341.524 13.0058L344.352 15.8342ZM343.898 16H355.178V12H343.898V16ZM355.178 16C355.499 16 355.638 16.0655 355.685 16.0936C355.722 16.1159 355.802 16.1711 355.895 16.3655L359.501 14.6345C359.114 13.8289 358.533 13.1341 357.731 12.6564C356.938 12.1845 356.056 12 355.178 12V16ZM355.907 16.3909L361.907 28.4509L365.489 26.6691L359.489 14.6091L355.907 16.3909ZM365.489 28.4509L371.489 16.3909L367.907 14.6091L361.907 26.6691L365.489 28.4509ZM371.501 16.3655C371.594 16.1711 371.673 16.1159 371.711 16.0936C371.758 16.0655 371.896 16 372.218 16V12C371.339 12 370.458 12.1845 369.665 12.6564C368.862 13.1341 368.282 13.8289 367.895 14.6345L371.501 16.3655ZM372.218 16H383.498V12H372.218V16ZM383.498 16C383.412 16 383.284 15.9815 383.147 15.9174C383.011 15.8539 382.923 15.773 382.879 15.7216L385.916 13.1184C385.307 12.4076 384.458 12 383.498 12V16ZM383.096 15.9385C383.094 15.9367 383.024 15.8764 382.952 15.7432C382.874 15.5982 382.818 15.4092 382.818 15.2H386.818C386.818 14.1644 386.273 13.3933 385.699 12.9015L383.096 15.9385ZM382.818 15.2C382.818 15.2486 382.814 15.2504 382.82 15.2172C382.826 15.1852 382.846 15.0912 382.909 14.9656L386.487 16.7544C386.762 16.2034 386.818 15.6325 386.818 15.2H382.818ZM382.913 14.9576L369.413 41.6576L372.983 43.4624L386.483 16.7624L382.913 14.9576ZM369.198 42.56V54.38H373.198V42.56H369.198ZM369.198 54.38C369.198 54.3516 369.204 54.2907 369.235 54.2189C369.264 54.1481 369.299 54.1108 369.304 54.1058L372.132 56.9342C372.815 56.2511 373.198 55.3671 373.198 54.38H369.198ZM369.304 54.1058C369.309 54.1008 369.346 54.0665 369.417 54.0367C369.489 54.0065 369.549 54 369.578 54V58C370.565 58 371.449 57.6173 372.132 56.9342L369.304 54.1058Z" fill="#1E1E1E"/>
</g>
<defs>
<filter id="filter0_d" x="0.699951" y="6.79999" width="390.118" height="55.8" filterUnits="userSpaceOnUse" color-interpolation-filters="sRGB">
<feFlood flood-opacity="0" result="BackgroundImageFix"/>
<feColorMatrix in="SourceAlpha" type="matrix" values="0 0 0 0 0 0 0 0 0 0 0 0 0 0 0 0 0 0 127 0"/>
<feOffset dx="4" dy="4"/>
<feColorMatrix type="matrix" values="0 0 0 0 0.116667 0 0 0 0 0.116667 0 0 0 0 0.116667 0 0 0 1 0"/>
<feBlend mode="normal" in2="BackgroundImageFix" result="effect1_dropShadow"/>
<feBlend mode="normal" in="SourceGraphic" in2="effect1_dropShadow" result="shape"/>
</filter>
</defs>
</svg>
